M48
; DRILL file {KiCad 9.0.1} date 2025-05-08T09:46:55+0200
; FORMAT={-:-/ absolute / metric / decimal}
; #@! TF.CreationDate,2025-05-08T09:46:55+02:00
; #@! TF.GenerationSoftware,Kicad,Pcbnew,9.0.1
; #@! TF.FileFunction,Plated,1,2,PTH
FMAT,2
METRIC
; #@! TA.AperFunction,Plated,PTH,ViaDrill
T1C0.300
; #@! TA.AperFunction,Plated,PTH,ComponentDrill
T2C1.000
; #@! TA.AperFunction,Plated,PTH,ComponentDrill
T3C1.300
; #@! TA.AperFunction,Plated,PTH,ComponentDrill
T4C2.250
%
G90
G05
T1
X68.0Y-81.5
X68.0Y-82.5
X68.0Y-83.5
X68.5Y-91.5
X68.5Y-92.5
X68.5Y-93.5
X68.5Y-94.5
X69.0Y-81.5
X69.0Y-82.5
X69.0Y-83.5
X70.0Y-81.5
X70.0Y-82.5
X70.0Y-83.5
X71.0Y-91.5
X71.0Y-92.5
X71.0Y-93.5
X71.0Y-94.5
X73.0Y-128.0
X75.25Y-108.25
X79.25Y-96.25
X80.25Y-96.25
X81.25Y-96.25
X82.25Y-96.25
X85.25Y-111.15
X85.5Y-107.5
X86.75Y-109.0
X87.4Y-99.0
X87.4Y-102.0
X87.5Y-117.0
X88.625Y-116.875
X88.742Y-116.008
X89.0Y-72.5
X89.24Y-94.25
X89.45Y-109.45
X89.875Y-88.25
X90.0Y-94.0
X90.0Y-107.5
X90.201Y-113.299
X90.25Y-87.0
X90.375Y-108.75
X90.977Y-111.206
X91.0Y-94.0
X91.0Y-103.75
X91.0Y-116.0
X91.75Y-111.0
X92.0Y-94.0
X92.497Y-109.491
X92.75Y-110.25
X93.0Y-103.125
X93.0Y-108.75
X93.497Y-72.975
X93.75Y-107.5
X94.0Y-81.5
X94.0Y-82.5
X94.0Y-83.5
X95.0Y-71.0
X95.0Y-81.5
X95.0Y-82.5
X95.0Y-83.5
X95.0Y-91.5
X95.0Y-92.5
X95.0Y-93.5
X95.0Y-111.5
X96.0Y-81.5
X96.0Y-82.5
X96.0Y-83.5
X96.0Y-91.5
X96.0Y-92.5
X96.0Y-93.5
X97.0Y-91.5
X97.0Y-92.5
X97.0Y-93.5
X98.0Y-104.75
X100.0Y-71.5
X100.5Y-71.0
X101.5Y-104.5
X101.5Y-114.0
X102.5Y-102.5
X102.5Y-104.5
X102.5Y-107.25
X103.25Y-109.65
X103.5Y-105.0
X104.5Y-109.25
X104.5Y-113.5
X105.25Y-96.25
X106.25Y-96.25
X106.5Y-107.0
X107.25Y-96.25
X107.25Y-114.25
X107.5Y-111.25
X108.0Y-107.0
X108.0Y-122.75
X108.25Y-96.25
X109.75Y-101.25
X110.25Y-103.5
X110.495Y-112.124
X110.586Y-104.271
X110.651Y-105.09
X110.651Y-106.015
X111.5Y-113.324
X114.5Y-107.75
X115.0Y-72.5
X115.0Y-110.0
X116.25Y-94.25
X116.5Y-73.0
X118.25Y-81.25
X119.25Y-103.75
X119.497Y-72.975
X120.25Y-90.75
X120.25Y-97.25
X120.5Y-78.0
X121.0Y-71.0
X121.0Y-77.0
X121.25Y-90.25
X121.25Y-96.25
X121.5Y-71.5
X121.5Y-87.5
X121.5Y-109.5
X123.0Y-88.0
X123.0Y-94.5
X124.0Y-87.5
X124.0Y-93.5
X124.0Y-102.0
X124.5Y-71.0
X125.0Y-98.75
X126.25Y-109.5
X129.5Y-96.0
X131.5Y-113.5
X131.5Y-121.0
X132.0Y-100.0
X133.0Y-78.5
T2
X68.0Y-106.0
X68.0Y-108.54
X68.0Y-111.08
X68.0Y-113.62
X72.0Y-106.0
X72.0Y-108.54
X72.0Y-111.08
X84.25Y-100.5
X86.75Y-100.5
X89.25Y-100.5
X91.75Y-100.5
T3
X77.5Y-74.0
X82.5Y-74.0
X103.5Y-74.0
X108.5Y-74.0
X130.0Y-83.5
X130.0Y-88.5
T4
X77.0Y-100.75
X77.0Y-123.25
X99.0Y-100.75
X99.0Y-123.25
M30
