%TF.GenerationSoftware,KiCad,Pcbnew,9.0.1*%
%TF.CreationDate,2025-05-08T09:46:55+02:00*%
%TF.ProjectId,bidirectional-tester,62696469-7265-4637-9469-6f6e616c2d74,rev?*%
%TF.SameCoordinates,Original*%
%TF.FileFunction,Drillmap*%
%TF.FilePolarity,Positive*%
%FSLAX45Y45*%
G04 Gerber Fmt 4.5, Leading zero omitted, Abs format (unit mm)*
G04 Created by KiCad (PCBNEW 9.0.1) date 2025-05-08 09:46:55*
%MOMM*%
%LPD*%
G01*
G04 APERTURE LIST*
%ADD10C,0.050000*%
%ADD11C,0.200000*%
%ADD12C,0.320000*%
G04 APERTURE END LIST*
D10*
X13400000Y-12600000D02*
G75*
G02*
X13000000Y-13000000I-400000J0D01*
G01*
X13000000Y-13000000D02*
X7000000Y-13000000D01*
X13000000Y-7000000D02*
X7000000Y-7000000D01*
X13400000Y-12600000D02*
X13400000Y-7400000D01*
X7000000Y-13000000D02*
G75*
G02*
X6600000Y-12600000I0J400000D01*
G01*
X13000000Y-7000000D02*
G75*
G02*
X13400000Y-7400000I0J-400000D01*
G01*
X6600000Y-7400000D02*
G75*
G02*
X7000000Y-7000000I400000J0D01*
G01*
X6600000Y-7400000D02*
X6600000Y-12600000D01*
D11*
D12*
X6840000Y-7240000D02*
X7160000Y-7560000D01*
X7160000Y-7240000D02*
X6840000Y-7560000D01*
X6840000Y-12440000D02*
X7160000Y-12760000D01*
X7160000Y-12440000D02*
X6840000Y-12760000D01*
X12840000Y-7240000D02*
X13160000Y-7560000D01*
X13160000Y-7240000D02*
X12840000Y-7560000D01*
X12840000Y-12440000D02*
X13160000Y-12760000D01*
X13160000Y-12440000D02*
X12840000Y-12760000D01*
D11*
X6858277Y-13313984D02*
X6858277Y-13113984D01*
X6858277Y-13113984D02*
X6905896Y-13113984D01*
X6905896Y-13113984D02*
X6934467Y-13123508D01*
X6934467Y-13123508D02*
X6953515Y-13142555D01*
X6953515Y-13142555D02*
X6963039Y-13161603D01*
X6963039Y-13161603D02*
X6972562Y-13199698D01*
X6972562Y-13199698D02*
X6972562Y-13228269D01*
X6972562Y-13228269D02*
X6963039Y-13266365D01*
X6963039Y-13266365D02*
X6953515Y-13285412D01*
X6953515Y-13285412D02*
X6934467Y-13304460D01*
X6934467Y-13304460D02*
X6905896Y-13313984D01*
X6905896Y-13313984D02*
X6858277Y-13313984D01*
X7058277Y-13313984D02*
X7058277Y-13180650D01*
X7058277Y-13218746D02*
X7067801Y-13199698D01*
X7067801Y-13199698D02*
X7077324Y-13190174D01*
X7077324Y-13190174D02*
X7096372Y-13180650D01*
X7096372Y-13180650D02*
X7115420Y-13180650D01*
X7182086Y-13313984D02*
X7182086Y-13180650D01*
X7182086Y-13113984D02*
X7172562Y-13123508D01*
X7172562Y-13123508D02*
X7182086Y-13133031D01*
X7182086Y-13133031D02*
X7191610Y-13123508D01*
X7191610Y-13123508D02*
X7182086Y-13113984D01*
X7182086Y-13113984D02*
X7182086Y-13133031D01*
X7305896Y-13313984D02*
X7286848Y-13304460D01*
X7286848Y-13304460D02*
X7277324Y-13285412D01*
X7277324Y-13285412D02*
X7277324Y-13113984D01*
X7410658Y-13313984D02*
X7391610Y-13304460D01*
X7391610Y-13304460D02*
X7382086Y-13285412D01*
X7382086Y-13285412D02*
X7382086Y-13113984D01*
X7639229Y-13313984D02*
X7639229Y-13113984D01*
X7639229Y-13113984D02*
X7705896Y-13256841D01*
X7705896Y-13256841D02*
X7772562Y-13113984D01*
X7772562Y-13113984D02*
X7772562Y-13313984D01*
X7953515Y-13313984D02*
X7953515Y-13209222D01*
X7953515Y-13209222D02*
X7943991Y-13190174D01*
X7943991Y-13190174D02*
X7924943Y-13180650D01*
X7924943Y-13180650D02*
X7886848Y-13180650D01*
X7886848Y-13180650D02*
X7867801Y-13190174D01*
X7953515Y-13304460D02*
X7934467Y-13313984D01*
X7934467Y-13313984D02*
X7886848Y-13313984D01*
X7886848Y-13313984D02*
X7867801Y-13304460D01*
X7867801Y-13304460D02*
X7858277Y-13285412D01*
X7858277Y-13285412D02*
X7858277Y-13266365D01*
X7858277Y-13266365D02*
X7867801Y-13247317D01*
X7867801Y-13247317D02*
X7886848Y-13237793D01*
X7886848Y-13237793D02*
X7934467Y-13237793D01*
X7934467Y-13237793D02*
X7953515Y-13228269D01*
X8048753Y-13180650D02*
X8048753Y-13380650D01*
X8048753Y-13190174D02*
X8067801Y-13180650D01*
X8067801Y-13180650D02*
X8105896Y-13180650D01*
X8105896Y-13180650D02*
X8124943Y-13190174D01*
X8124943Y-13190174D02*
X8134467Y-13199698D01*
X8134467Y-13199698D02*
X8143991Y-13218746D01*
X8143991Y-13218746D02*
X8143991Y-13275888D01*
X8143991Y-13275888D02*
X8134467Y-13294936D01*
X8134467Y-13294936D02*
X8124943Y-13304460D01*
X8124943Y-13304460D02*
X8105896Y-13313984D01*
X8105896Y-13313984D02*
X8067801Y-13313984D01*
X8067801Y-13313984D02*
X8048753Y-13304460D01*
X8229705Y-13294936D02*
X8239229Y-13304460D01*
X8239229Y-13304460D02*
X8229705Y-13313984D01*
X8229705Y-13313984D02*
X8220182Y-13304460D01*
X8220182Y-13304460D02*
X8229705Y-13294936D01*
X8229705Y-13294936D02*
X8229705Y-13313984D01*
X8229705Y-13190174D02*
X8239229Y-13199698D01*
X8239229Y-13199698D02*
X8229705Y-13209222D01*
X8229705Y-13209222D02*
X8220182Y-13199698D01*
X8220182Y-13199698D02*
X8229705Y-13190174D01*
X8229705Y-13190174D02*
X8229705Y-13209222D01*
X6397500Y-13542500D02*
X6597500Y-13742500D01*
X6597500Y-13542500D02*
X6397500Y-13742500D01*
X6839229Y-13533984D02*
X6963039Y-13533984D01*
X6963039Y-13533984D02*
X6896372Y-13610174D01*
X6896372Y-13610174D02*
X6924943Y-13610174D01*
X6924943Y-13610174D02*
X6943991Y-13619698D01*
X6943991Y-13619698D02*
X6953515Y-13629222D01*
X6953515Y-13629222D02*
X6963039Y-13648269D01*
X6963039Y-13648269D02*
X6963039Y-13695888D01*
X6963039Y-13695888D02*
X6953515Y-13714936D01*
X6953515Y-13714936D02*
X6943991Y-13724460D01*
X6943991Y-13724460D02*
X6924943Y-13733984D01*
X6924943Y-13733984D02*
X6867801Y-13733984D01*
X6867801Y-13733984D02*
X6848753Y-13724460D01*
X6848753Y-13724460D02*
X6839229Y-13714936D01*
X7048753Y-13714936D02*
X7058277Y-13724460D01*
X7058277Y-13724460D02*
X7048753Y-13733984D01*
X7048753Y-13733984D02*
X7039229Y-13724460D01*
X7039229Y-13724460D02*
X7048753Y-13714936D01*
X7048753Y-13714936D02*
X7048753Y-13733984D01*
X7134467Y-13553031D02*
X7143991Y-13543508D01*
X7143991Y-13543508D02*
X7163039Y-13533984D01*
X7163039Y-13533984D02*
X7210658Y-13533984D01*
X7210658Y-13533984D02*
X7229705Y-13543508D01*
X7229705Y-13543508D02*
X7239229Y-13553031D01*
X7239229Y-13553031D02*
X7248753Y-13572079D01*
X7248753Y-13572079D02*
X7248753Y-13591127D01*
X7248753Y-13591127D02*
X7239229Y-13619698D01*
X7239229Y-13619698D02*
X7124943Y-13733984D01*
X7124943Y-13733984D02*
X7248753Y-13733984D01*
X7372562Y-13533984D02*
X7391610Y-13533984D01*
X7391610Y-13533984D02*
X7410658Y-13543508D01*
X7410658Y-13543508D02*
X7420182Y-13553031D01*
X7420182Y-13553031D02*
X7429705Y-13572079D01*
X7429705Y-13572079D02*
X7439229Y-13610174D01*
X7439229Y-13610174D02*
X7439229Y-13657793D01*
X7439229Y-13657793D02*
X7429705Y-13695888D01*
X7429705Y-13695888D02*
X7420182Y-13714936D01*
X7420182Y-13714936D02*
X7410658Y-13724460D01*
X7410658Y-13724460D02*
X7391610Y-13733984D01*
X7391610Y-13733984D02*
X7372562Y-13733984D01*
X7372562Y-13733984D02*
X7353515Y-13724460D01*
X7353515Y-13724460D02*
X7343991Y-13714936D01*
X7343991Y-13714936D02*
X7334467Y-13695888D01*
X7334467Y-13695888D02*
X7324943Y-13657793D01*
X7324943Y-13657793D02*
X7324943Y-13610174D01*
X7324943Y-13610174D02*
X7334467Y-13572079D01*
X7334467Y-13572079D02*
X7343991Y-13553031D01*
X7343991Y-13553031D02*
X7353515Y-13543508D01*
X7353515Y-13543508D02*
X7372562Y-13533984D01*
X7563039Y-13533984D02*
X7582086Y-13533984D01*
X7582086Y-13533984D02*
X7601134Y-13543508D01*
X7601134Y-13543508D02*
X7610658Y-13553031D01*
X7610658Y-13553031D02*
X7620182Y-13572079D01*
X7620182Y-13572079D02*
X7629705Y-13610174D01*
X7629705Y-13610174D02*
X7629705Y-13657793D01*
X7629705Y-13657793D02*
X7620182Y-13695888D01*
X7620182Y-13695888D02*
X7610658Y-13714936D01*
X7610658Y-13714936D02*
X7601134Y-13724460D01*
X7601134Y-13724460D02*
X7582086Y-13733984D01*
X7582086Y-13733984D02*
X7563039Y-13733984D01*
X7563039Y-13733984D02*
X7543991Y-13724460D01*
X7543991Y-13724460D02*
X7534467Y-13714936D01*
X7534467Y-13714936D02*
X7524943Y-13695888D01*
X7524943Y-13695888D02*
X7515420Y-13657793D01*
X7515420Y-13657793D02*
X7515420Y-13610174D01*
X7515420Y-13610174D02*
X7524943Y-13572079D01*
X7524943Y-13572079D02*
X7534467Y-13553031D01*
X7534467Y-13553031D02*
X7543991Y-13543508D01*
X7543991Y-13543508D02*
X7563039Y-13533984D01*
X7715420Y-13733984D02*
X7715420Y-13600650D01*
X7715420Y-13619698D02*
X7724943Y-13610174D01*
X7724943Y-13610174D02*
X7743991Y-13600650D01*
X7743991Y-13600650D02*
X7772563Y-13600650D01*
X7772563Y-13600650D02*
X7791610Y-13610174D01*
X7791610Y-13610174D02*
X7801134Y-13629222D01*
X7801134Y-13629222D02*
X7801134Y-13733984D01*
X7801134Y-13629222D02*
X7810658Y-13610174D01*
X7810658Y-13610174D02*
X7829705Y-13600650D01*
X7829705Y-13600650D02*
X7858277Y-13600650D01*
X7858277Y-13600650D02*
X7877324Y-13610174D01*
X7877324Y-13610174D02*
X7886848Y-13629222D01*
X7886848Y-13629222D02*
X7886848Y-13733984D01*
X7982086Y-13733984D02*
X7982086Y-13600650D01*
X7982086Y-13619698D02*
X7991610Y-13610174D01*
X7991610Y-13610174D02*
X8010658Y-13600650D01*
X8010658Y-13600650D02*
X8039229Y-13600650D01*
X8039229Y-13600650D02*
X8058277Y-13610174D01*
X8058277Y-13610174D02*
X8067801Y-13629222D01*
X8067801Y-13629222D02*
X8067801Y-13733984D01*
X8067801Y-13629222D02*
X8077324Y-13610174D01*
X8077324Y-13610174D02*
X8096372Y-13600650D01*
X8096372Y-13600650D02*
X8124943Y-13600650D01*
X8124943Y-13600650D02*
X8143991Y-13610174D01*
X8143991Y-13610174D02*
X8153515Y-13629222D01*
X8153515Y-13629222D02*
X8153515Y-13733984D01*
X8543991Y-13524460D02*
X8372563Y-13781603D01*
X8801134Y-13533984D02*
X8820182Y-13533984D01*
X8820182Y-13533984D02*
X8839229Y-13543508D01*
X8839229Y-13543508D02*
X8848753Y-13553031D01*
X8848753Y-13553031D02*
X8858277Y-13572079D01*
X8858277Y-13572079D02*
X8867801Y-13610174D01*
X8867801Y-13610174D02*
X8867801Y-13657793D01*
X8867801Y-13657793D02*
X8858277Y-13695888D01*
X8858277Y-13695888D02*
X8848753Y-13714936D01*
X8848753Y-13714936D02*
X8839229Y-13724460D01*
X8839229Y-13724460D02*
X8820182Y-13733984D01*
X8820182Y-13733984D02*
X8801134Y-13733984D01*
X8801134Y-13733984D02*
X8782087Y-13724460D01*
X8782087Y-13724460D02*
X8772563Y-13714936D01*
X8772563Y-13714936D02*
X8763039Y-13695888D01*
X8763039Y-13695888D02*
X8753515Y-13657793D01*
X8753515Y-13657793D02*
X8753515Y-13610174D01*
X8753515Y-13610174D02*
X8763039Y-13572079D01*
X8763039Y-13572079D02*
X8772563Y-13553031D01*
X8772563Y-13553031D02*
X8782087Y-13543508D01*
X8782087Y-13543508D02*
X8801134Y-13533984D01*
X8953515Y-13714936D02*
X8963039Y-13724460D01*
X8963039Y-13724460D02*
X8953515Y-13733984D01*
X8953515Y-13733984D02*
X8943991Y-13724460D01*
X8943991Y-13724460D02*
X8953515Y-13714936D01*
X8953515Y-13714936D02*
X8953515Y-13733984D01*
X9153515Y-13733984D02*
X9039229Y-13733984D01*
X9096372Y-13733984D02*
X9096372Y-13533984D01*
X9096372Y-13533984D02*
X9077325Y-13562555D01*
X9077325Y-13562555D02*
X9058277Y-13581603D01*
X9058277Y-13581603D02*
X9039229Y-13591127D01*
X9229706Y-13553031D02*
X9239229Y-13543508D01*
X9239229Y-13543508D02*
X9258277Y-13533984D01*
X9258277Y-13533984D02*
X9305896Y-13533984D01*
X9305896Y-13533984D02*
X9324944Y-13543508D01*
X9324944Y-13543508D02*
X9334468Y-13553031D01*
X9334468Y-13553031D02*
X9343991Y-13572079D01*
X9343991Y-13572079D02*
X9343991Y-13591127D01*
X9343991Y-13591127D02*
X9334468Y-13619698D01*
X9334468Y-13619698D02*
X9220182Y-13733984D01*
X9220182Y-13733984D02*
X9343991Y-13733984D01*
X9515420Y-13533984D02*
X9477325Y-13533984D01*
X9477325Y-13533984D02*
X9458277Y-13543508D01*
X9458277Y-13543508D02*
X9448753Y-13553031D01*
X9448753Y-13553031D02*
X9429706Y-13581603D01*
X9429706Y-13581603D02*
X9420182Y-13619698D01*
X9420182Y-13619698D02*
X9420182Y-13695888D01*
X9420182Y-13695888D02*
X9429706Y-13714936D01*
X9429706Y-13714936D02*
X9439229Y-13724460D01*
X9439229Y-13724460D02*
X9458277Y-13733984D01*
X9458277Y-13733984D02*
X9496372Y-13733984D01*
X9496372Y-13733984D02*
X9515420Y-13724460D01*
X9515420Y-13724460D02*
X9524944Y-13714936D01*
X9524944Y-13714936D02*
X9534468Y-13695888D01*
X9534468Y-13695888D02*
X9534468Y-13648269D01*
X9534468Y-13648269D02*
X9524944Y-13629222D01*
X9524944Y-13629222D02*
X9515420Y-13619698D01*
X9515420Y-13619698D02*
X9496372Y-13610174D01*
X9496372Y-13610174D02*
X9458277Y-13610174D01*
X9458277Y-13610174D02*
X9439229Y-13619698D01*
X9439229Y-13619698D02*
X9429706Y-13629222D01*
X9429706Y-13629222D02*
X9420182Y-13648269D01*
X9658277Y-13533984D02*
X9677325Y-13533984D01*
X9677325Y-13533984D02*
X9696372Y-13543508D01*
X9696372Y-13543508D02*
X9705896Y-13553031D01*
X9705896Y-13553031D02*
X9715420Y-13572079D01*
X9715420Y-13572079D02*
X9724944Y-13610174D01*
X9724944Y-13610174D02*
X9724944Y-13657793D01*
X9724944Y-13657793D02*
X9715420Y-13695888D01*
X9715420Y-13695888D02*
X9705896Y-13714936D01*
X9705896Y-13714936D02*
X9696372Y-13724460D01*
X9696372Y-13724460D02*
X9677325Y-13733984D01*
X9677325Y-13733984D02*
X9658277Y-13733984D01*
X9658277Y-13733984D02*
X9639229Y-13724460D01*
X9639229Y-13724460D02*
X9629706Y-13714936D01*
X9629706Y-13714936D02*
X9620182Y-13695888D01*
X9620182Y-13695888D02*
X9610658Y-13657793D01*
X9610658Y-13657793D02*
X9610658Y-13610174D01*
X9610658Y-13610174D02*
X9620182Y-13572079D01*
X9620182Y-13572079D02*
X9629706Y-13553031D01*
X9629706Y-13553031D02*
X9639229Y-13543508D01*
X9639229Y-13543508D02*
X9658277Y-13533984D01*
X9801134Y-13533984D02*
X9801134Y-13572079D01*
X9877325Y-13533984D02*
X9877325Y-13572079D01*
X10172563Y-13810174D02*
X10163039Y-13800650D01*
X10163039Y-13800650D02*
X10143991Y-13772079D01*
X10143991Y-13772079D02*
X10134468Y-13753031D01*
X10134468Y-13753031D02*
X10124944Y-13724460D01*
X10124944Y-13724460D02*
X10115420Y-13676841D01*
X10115420Y-13676841D02*
X10115420Y-13638746D01*
X10115420Y-13638746D02*
X10124944Y-13591127D01*
X10124944Y-13591127D02*
X10134468Y-13562555D01*
X10134468Y-13562555D02*
X10143991Y-13543508D01*
X10143991Y-13543508D02*
X10163039Y-13514936D01*
X10163039Y-13514936D02*
X10172563Y-13505412D01*
X10334468Y-13600650D02*
X10334468Y-13733984D01*
X10286849Y-13524460D02*
X10239230Y-13667317D01*
X10239230Y-13667317D02*
X10363039Y-13667317D01*
X10591611Y-13733984D02*
X10591611Y-13533984D01*
X10677325Y-13733984D02*
X10677325Y-13629222D01*
X10677325Y-13629222D02*
X10667801Y-13610174D01*
X10667801Y-13610174D02*
X10648753Y-13600650D01*
X10648753Y-13600650D02*
X10620182Y-13600650D01*
X10620182Y-13600650D02*
X10601134Y-13610174D01*
X10601134Y-13610174D02*
X10591611Y-13619698D01*
X10801134Y-13733984D02*
X10782087Y-13724460D01*
X10782087Y-13724460D02*
X10772563Y-13714936D01*
X10772563Y-13714936D02*
X10763039Y-13695888D01*
X10763039Y-13695888D02*
X10763039Y-13638746D01*
X10763039Y-13638746D02*
X10772563Y-13619698D01*
X10772563Y-13619698D02*
X10782087Y-13610174D01*
X10782087Y-13610174D02*
X10801134Y-13600650D01*
X10801134Y-13600650D02*
X10829706Y-13600650D01*
X10829706Y-13600650D02*
X10848753Y-13610174D01*
X10848753Y-13610174D02*
X10858277Y-13619698D01*
X10858277Y-13619698D02*
X10867801Y-13638746D01*
X10867801Y-13638746D02*
X10867801Y-13695888D01*
X10867801Y-13695888D02*
X10858277Y-13714936D01*
X10858277Y-13714936D02*
X10848753Y-13724460D01*
X10848753Y-13724460D02*
X10829706Y-13733984D01*
X10829706Y-13733984D02*
X10801134Y-13733984D01*
X10982087Y-13733984D02*
X10963039Y-13724460D01*
X10963039Y-13724460D02*
X10953515Y-13705412D01*
X10953515Y-13705412D02*
X10953515Y-13533984D01*
X11134468Y-13724460D02*
X11115420Y-13733984D01*
X11115420Y-13733984D02*
X11077325Y-13733984D01*
X11077325Y-13733984D02*
X11058277Y-13724460D01*
X11058277Y-13724460D02*
X11048753Y-13705412D01*
X11048753Y-13705412D02*
X11048753Y-13629222D01*
X11048753Y-13629222D02*
X11058277Y-13610174D01*
X11058277Y-13610174D02*
X11077325Y-13600650D01*
X11077325Y-13600650D02*
X11115420Y-13600650D01*
X11115420Y-13600650D02*
X11134468Y-13610174D01*
X11134468Y-13610174D02*
X11143992Y-13629222D01*
X11143992Y-13629222D02*
X11143992Y-13648269D01*
X11143992Y-13648269D02*
X11048753Y-13667317D01*
X11220182Y-13724460D02*
X11239230Y-13733984D01*
X11239230Y-13733984D02*
X11277325Y-13733984D01*
X11277325Y-13733984D02*
X11296372Y-13724460D01*
X11296372Y-13724460D02*
X11305896Y-13705412D01*
X11305896Y-13705412D02*
X11305896Y-13695888D01*
X11305896Y-13695888D02*
X11296372Y-13676841D01*
X11296372Y-13676841D02*
X11277325Y-13667317D01*
X11277325Y-13667317D02*
X11248753Y-13667317D01*
X11248753Y-13667317D02*
X11229706Y-13657793D01*
X11229706Y-13657793D02*
X11220182Y-13638746D01*
X11220182Y-13638746D02*
X11220182Y-13629222D01*
X11220182Y-13629222D02*
X11229706Y-13610174D01*
X11229706Y-13610174D02*
X11248753Y-13600650D01*
X11248753Y-13600650D02*
X11277325Y-13600650D01*
X11277325Y-13600650D02*
X11296372Y-13610174D01*
X11372563Y-13810174D02*
X11382087Y-13800650D01*
X11382087Y-13800650D02*
X11401134Y-13772079D01*
X11401134Y-13772079D02*
X11410658Y-13753031D01*
X11410658Y-13753031D02*
X11420182Y-13724460D01*
X11420182Y-13724460D02*
X11429706Y-13676841D01*
X11429706Y-13676841D02*
X11429706Y-13638746D01*
X11429706Y-13638746D02*
X11420182Y-13591127D01*
X11420182Y-13591127D02*
X11410658Y-13562555D01*
X11410658Y-13562555D02*
X11401134Y-13543508D01*
X11401134Y-13543508D02*
X11382087Y-13514936D01*
X11382087Y-13514936D02*
X11372563Y-13505412D01*
X11734468Y-13810174D02*
X11724944Y-13800650D01*
X11724944Y-13800650D02*
X11705896Y-13772079D01*
X11705896Y-13772079D02*
X11696372Y-13753031D01*
X11696372Y-13753031D02*
X11686849Y-13724460D01*
X11686849Y-13724460D02*
X11677325Y-13676841D01*
X11677325Y-13676841D02*
X11677325Y-13638746D01*
X11677325Y-13638746D02*
X11686849Y-13591127D01*
X11686849Y-13591127D02*
X11696372Y-13562555D01*
X11696372Y-13562555D02*
X11705896Y-13543508D01*
X11705896Y-13543508D02*
X11724944Y-13514936D01*
X11724944Y-13514936D02*
X11734468Y-13505412D01*
X11810658Y-13600650D02*
X11810658Y-13733984D01*
X11810658Y-13619698D02*
X11820182Y-13610174D01*
X11820182Y-13610174D02*
X11839230Y-13600650D01*
X11839230Y-13600650D02*
X11867801Y-13600650D01*
X11867801Y-13600650D02*
X11886849Y-13610174D01*
X11886849Y-13610174D02*
X11896372Y-13629222D01*
X11896372Y-13629222D02*
X11896372Y-13733984D01*
X12020182Y-13733984D02*
X12001134Y-13724460D01*
X12001134Y-13724460D02*
X11991611Y-13714936D01*
X11991611Y-13714936D02*
X11982087Y-13695888D01*
X11982087Y-13695888D02*
X11982087Y-13638746D01*
X11982087Y-13638746D02*
X11991611Y-13619698D01*
X11991611Y-13619698D02*
X12001134Y-13610174D01*
X12001134Y-13610174D02*
X12020182Y-13600650D01*
X12020182Y-13600650D02*
X12048753Y-13600650D01*
X12048753Y-13600650D02*
X12067801Y-13610174D01*
X12067801Y-13610174D02*
X12077325Y-13619698D01*
X12077325Y-13619698D02*
X12086849Y-13638746D01*
X12086849Y-13638746D02*
X12086849Y-13695888D01*
X12086849Y-13695888D02*
X12077325Y-13714936D01*
X12077325Y-13714936D02*
X12067801Y-13724460D01*
X12067801Y-13724460D02*
X12048753Y-13733984D01*
X12048753Y-13733984D02*
X12020182Y-13733984D01*
X12143992Y-13600650D02*
X12220182Y-13600650D01*
X12172563Y-13533984D02*
X12172563Y-13705412D01*
X12172563Y-13705412D02*
X12182087Y-13724460D01*
X12182087Y-13724460D02*
X12201134Y-13733984D01*
X12201134Y-13733984D02*
X12220182Y-13733984D01*
X12439230Y-13600650D02*
X12439230Y-13800650D01*
X12439230Y-13610174D02*
X12458277Y-13600650D01*
X12458277Y-13600650D02*
X12496373Y-13600650D01*
X12496373Y-13600650D02*
X12515420Y-13610174D01*
X12515420Y-13610174D02*
X12524944Y-13619698D01*
X12524944Y-13619698D02*
X12534468Y-13638746D01*
X12534468Y-13638746D02*
X12534468Y-13695888D01*
X12534468Y-13695888D02*
X12524944Y-13714936D01*
X12524944Y-13714936D02*
X12515420Y-13724460D01*
X12515420Y-13724460D02*
X12496373Y-13733984D01*
X12496373Y-13733984D02*
X12458277Y-13733984D01*
X12458277Y-13733984D02*
X12439230Y-13724460D01*
X12648753Y-13733984D02*
X12629706Y-13724460D01*
X12629706Y-13724460D02*
X12620182Y-13705412D01*
X12620182Y-13705412D02*
X12620182Y-13533984D01*
X12810658Y-13733984D02*
X12810658Y-13629222D01*
X12810658Y-13629222D02*
X12801134Y-13610174D01*
X12801134Y-13610174D02*
X12782087Y-13600650D01*
X12782087Y-13600650D02*
X12743992Y-13600650D01*
X12743992Y-13600650D02*
X12724944Y-13610174D01*
X12810658Y-13724460D02*
X12791611Y-13733984D01*
X12791611Y-13733984D02*
X12743992Y-13733984D01*
X12743992Y-13733984D02*
X12724944Y-13724460D01*
X12724944Y-13724460D02*
X12715420Y-13705412D01*
X12715420Y-13705412D02*
X12715420Y-13686365D01*
X12715420Y-13686365D02*
X12724944Y-13667317D01*
X12724944Y-13667317D02*
X12743992Y-13657793D01*
X12743992Y-13657793D02*
X12791611Y-13657793D01*
X12791611Y-13657793D02*
X12810658Y-13648269D01*
X12877325Y-13600650D02*
X12953515Y-13600650D01*
X12905896Y-13533984D02*
X12905896Y-13705412D01*
X12905896Y-13705412D02*
X12915420Y-13724460D01*
X12915420Y-13724460D02*
X12934468Y-13733984D01*
X12934468Y-13733984D02*
X12953515Y-13733984D01*
X13096373Y-13724460D02*
X13077325Y-13733984D01*
X13077325Y-13733984D02*
X13039230Y-13733984D01*
X13039230Y-13733984D02*
X13020182Y-13724460D01*
X13020182Y-13724460D02*
X13010658Y-13705412D01*
X13010658Y-13705412D02*
X13010658Y-13629222D01*
X13010658Y-13629222D02*
X13020182Y-13610174D01*
X13020182Y-13610174D02*
X13039230Y-13600650D01*
X13039230Y-13600650D02*
X13077325Y-13600650D01*
X13077325Y-13600650D02*
X13096373Y-13610174D01*
X13096373Y-13610174D02*
X13105896Y-13629222D01*
X13105896Y-13629222D02*
X13105896Y-13648269D01*
X13105896Y-13648269D02*
X13010658Y-13667317D01*
X13277325Y-13733984D02*
X13277325Y-13533984D01*
X13277325Y-13724460D02*
X13258277Y-13733984D01*
X13258277Y-13733984D02*
X13220182Y-13733984D01*
X13220182Y-13733984D02*
X13201134Y-13724460D01*
X13201134Y-13724460D02*
X13191611Y-13714936D01*
X13191611Y-13714936D02*
X13182087Y-13695888D01*
X13182087Y-13695888D02*
X13182087Y-13638746D01*
X13182087Y-13638746D02*
X13191611Y-13619698D01*
X13191611Y-13619698D02*
X13201134Y-13610174D01*
X13201134Y-13610174D02*
X13220182Y-13600650D01*
X13220182Y-13600650D02*
X13258277Y-13600650D01*
X13258277Y-13600650D02*
X13277325Y-13610174D01*
X13353515Y-13810174D02*
X13363039Y-13800650D01*
X13363039Y-13800650D02*
X13382087Y-13772079D01*
X13382087Y-13772079D02*
X13391611Y-13753031D01*
X13391611Y-13753031D02*
X13401134Y-13724460D01*
X13401134Y-13724460D02*
X13410658Y-13676841D01*
X13410658Y-13676841D02*
X13410658Y-13638746D01*
X13410658Y-13638746D02*
X13401134Y-13591127D01*
X13401134Y-13591127D02*
X13391611Y-13562555D01*
X13391611Y-13562555D02*
X13382087Y-13543508D01*
X13382087Y-13543508D02*
X13363039Y-13514936D01*
X13363039Y-13514936D02*
X13353515Y-13505412D01*
M02*
